<?xml version="1.0" standalone="no"?>
<!DOCTYPE svg PUBLIC "-//W3C//DTD SVG 20010904//EN"
 "http://www.w3.org/TR/2001/REC-SVG-20010904/DTD/svg10.dtd">
<svg version="1.0" xmlns="http://www.w3.org/2000/svg"
 width="1050.000000pt" height="1064.000000pt" viewBox="0 0 1050.000000 1064.000000"
 preserveAspectRatio="xMidYMid meet">
<metadata>
Created by potrace 1.16, written by Peter Selinger 2001-2019
</metadata>
<g transform="translate(0.000000,1064.000000) scale(0.100000,-0.100000)"
fill="#000000" stroke="none">
<path d="M4700 10298 c0 -24 9 -167 20 -318 11 -151 20 -290 20 -309 l0 -34
128 7 c70 4 151 10 180 13 52 6 52 6 52 40 l0 35 -57 -6 c-32 -3 -96 -8 -144
-12 l-85 -6 -17 273 c-10 151 -20 293 -24 317 -5 40 -7 42 -39 42 -33 0 -34
-1 -34 -42z"/>
<path d="M5585 10288 c-8 -74 -55 -607 -55 -630 0 -16 6 -19 37 -16 l38 3 27
305 c15 168 27 324 27 348 1 41 0 42 -33 42 -34 0 -35 -1 -41 -52z"/>
<path d="M6176 9920 c-59 -197 -95 -334 -90 -340 5 -5 21 -12 36 -15 20 -5 27
-3 32 12 69 233 160 531 165 540 3 7 21 -133 39 -310 18 -177 34 -323 36 -324
1 -2 16 -5 32 -9 28 -5 37 5 229 239 110 134 201 241 203 237 2 -4 -34 -130
-79 -279 -45 -150 -79 -274 -77 -277 3 -2 19 -9 36 -13 29 -9 32 -7 41 22 44
139 191 640 189 642 -2 2 -26 10 -54 18 l-51 15 -204 -245 -204 -246 -35 317
-34 316 -45 15 c-24 8 -49 15 -55 15 -6 0 -56 -149 -110 -330z"/>
<path d="M3756 10169 c-62 -15 -155 -69 -192 -113 -19 -22 -47 -65 -62 -96
-24 -48 -27 -66 -27 -150 1 -83 4 -102 28 -151 34 -70 109 -142 185 -177 111
-52 279 -30 379 49 52 41 110 129 129 197 20 68 13 169 -16 236 -65 153 -255
245 -424 205z m197 -87 c63 -28 126 -89 153 -147 31 -65 33 -170 5 -232 -62
-135 -222 -211 -353 -168 -130 42 -208 146 -208 276 0 82 23 141 80 203 85 92
210 118 323 68z"/>
<path d="M2644 9666 c-146 -47 -246 -189 -246 -348 1 -216 171 -372 388 -355
181 14 317 146 332 323 l5 68 -33 -21 c-28 -18 -37 -33 -51 -83 -49 -181 -227
-265 -399 -189 -94 41 -159 137 -167 244 -15 195 171 347 361 294 32 -9 44 -8
72 7 19 10 34 21 34 24 0 4 -17 15 -37 25 -49 24 -200 31 -259 11z"/>
<path d="M7470 9443 c-157 -113 -294 -212 -305 -219 -20 -15 -20 -15 5 -34 14
-11 31 -20 38 -20 7 0 58 32 113 71 l100 71 129 -78 c148 -90 139 -73 115
-219 -8 -49 -15 -97 -15 -105 0 -15 57 -56 66 -48 5 5 114 710 114 736 0 15
-51 53 -68 51 -4 0 -135 -93 -292 -206z m255 -54 c-14 -84 -28 -155 -29 -157
-5 -4 -206 120 -206 127 1 7 254 190 258 186 2 -1 -9 -72 -23 -156z"/>
<path d="M2065 8741 c-558 -516 -996 -1201 -1240 -1936 -59 -178 -121 -402
-113 -410 1 -2 15 -6 29 -10 25 -6 26 -5 59 122 120 469 363 1001 648 1418
204 299 447 579 722 828 93 85 94 86 75 106 -10 12 -21 21 -24 21 -3 0 -73
-63 -156 -139z"/>
<path d="M8303 8799 l-20 -21 187 -186 c198 -198 279 -291 431 -492 327 -431
597 -969 740 -1472 33 -119 42 -131 78 -109 12 7 10 22 -8 88 -114 423 -350
935 -611 1325 -195 291 -484 628 -710 828 l-67 59 -20 -20z"/>
<path d="M6190 7270 c-41 -5 -124 -6 -185 -3 -86 4 -118 2 -146 -10 -50 -21
-147 -150 -383 -512 -255 -392 -359 -530 -437 -579 -24 -15 -27 -15 -68 12
-29 19 -49 43 -67 79 -26 57 -25 56 -159 81 -144 28 -257 112 -398 299 -92
123 -132 149 -211 139 -39 -4 -69 -18 -131 -60 -44 -30 -94 -57 -111 -61 -66
-13 -116 -70 -314 -360 -145 -213 -282 -391 -410 -534 -111 -123 -315 -309
-349 -318 -17 -4 -40 2 -72 20 -53 30 -65 32 -121 15 -55 -16 -103 -69 -177
-194 -182 -307 -319 -448 -534 -549 -39 -19 -67 -34 -61 -35 24 0 183 50 267
86 183 76 307 179 436 362 102 144 124 167 194 201 76 37 184 52 193 27 10
-25 -68 -135 -180 -255 l-41 -44 72 38 c137 71 302 255 372 415 98 224 107
237 302 395 183 150 216 190 311 385 44 91 90 176 101 188 30 32 134 89 177
97 27 5 43 1 70 -17 45 -30 47 -47 15 -99 -39 -61 -72 -155 -112 -318 -97
-401 -132 -483 -269 -632 -29 -31 -60 -73 -69 -93 -10 -21 -43 -57 -76 -82
-33 -25 -59 -50 -59 -56 0 -15 90 -2 146 23 59 25 178 103 323 212 124 92 181
125 235 134 31 5 34 3 41 -25 29 -136 216 -153 438 -40 l38 19 -24 -38 c-273
-430 -321 -496 -496 -676 -96 -98 -164 -150 -212 -162 -14 -4 -61 -35 -103
-71 -122 -102 -254 -162 -461 -209 -66 -15 -127 -30 -135 -33 -23 -9 92 -20
220 -21 195 -1 313 22 545 107 222 80 283 135 472 422 183 275 274 377 403
445 144 75 183 157 260 540 23 116 54 242 70 282 65 170 401 661 554 812 31
30 57 53 58 50 2 -2 12 -29 22 -59 10 -30 46 -107 80 -170 33 -63 80 -156 103
-206 135 -291 135 -551 -1 -777 -19 -31 -32 -57 -29 -57 11 0 197 103 264 145
86 56 234 181 283 240 28 35 41 44 46 34 14 -25 30 -181 30 -283 -1 -236 -58
-357 -302 -633 -55 -62 -97 -113 -93 -113 25 0 490 331 621 442 51 42 94 74
98 71 11 -11 6 -106 -9 -178 -30 -143 -119 -291 -257 -428 -107 -106 -223
-184 -428 -287 -164 -82 -609 -335 -575 -326 58 15 392 87 470 101 113 21 219
23 318 8 108 -18 392 -16 492 2 151 28 220 35 465 45 135 5 270 14 300 19 78
13 157 -3 285 -55 210 -86 246 -97 320 -98 56 -1 81 5 128 26 31 15 57 31 57
36 0 5 -11 17 -23 25 -13 9 -73 57 -133 107 -342 287 -985 948 -1155 1186 -32
43 -150 237 -264 429 -251 423 -413 666 -535 803 -136 153 -167 168 -320 152z"/>
<path d="M136 5995 c-3 -8 -12 -15 -19 -15 -8 0 -22 -9 -32 -20 -26 -28 -14
-83 33 -150 35 -49 40 -65 51 -153 14 -107 6 -167 -30 -239 -11 -20 -19 -47
-19 -60 0 -24 -5 -69 -18 -153 -8 -52 4 -99 48 -186 27 -52 27 -137 -1 -190
-25 -50 -22 -70 13 -80 38 -10 68 9 106 66 17 28 36 51 41 53 13 4 120 -125
137 -164 15 -35 31 -44 75 -44 26 0 69 29 69 48 0 4 -7 28 -15 54 -12 42 -12
50 1 62 21 22 17 49 -17 119 l-32 64 34 74 c29 63 34 84 34 149 0 64 -4 82
-27 121 l-27 46 35 42 c31 36 37 52 45 118 6 42 8 82 5 90 -9 21 -36 15 -73
-17 -31 -28 -53 -38 -53 -25 0 26 40 70 88 98 l57 33 3 77 c4 106 -3 116 -75
110 -36 -3 -80 1 -117 11 -54 14 -65 14 -127 -1 -37 -9 -74 -13 -83 -10 -8 3
-27 24 -41 47 -26 41 -58 53 -69 25z"/>
<path d="M1059 5961 c-47 -46 -52 -49 -115 -54 l-65 -5 -61 49 c-34 27 -64 49
-68 49 -19 0 -31 -34 -32 -92 -1 -64 15 -111 46 -137 10 -8 16 -30 16 -55 0
-22 4 -58 9 -78 12 -50 -4 -50 -54 2 -24 25 -48 40 -63 40 l-24 0 4 -113 c3
-107 5 -116 32 -151 l28 -37 -26 -58 c-39 -88 -36 -160 10 -247 l36 -68 -32
-79 c-33 -85 -31 -97 18 -97 29 0 28 -10 -8 -73 -16 -30 -30 -56 -30 -60 0
-17 35 -37 65 -37 27 0 43 10 80 48 25 26 59 73 76 105 16 31 34 57 39 57 5 0
16 -13 25 -30 15 -29 60 -60 88 -60 32 0 37 24 20 95 -28 125 -28 126 11 183
19 29 38 69 42 89 12 63 -3 184 -31 258 -23 60 -26 80 -22 141 3 44 13 87 26
112 12 23 21 57 21 77 0 21 11 55 26 80 29 51 42 141 25 173 -20 37 -58 28
-112 -27z"/>
<path d="M9283 5996 c-4 -8 -17 -15 -28 -18 -11 -2 -25 -15 -32 -29 -16 -34
-3 -74 48 -149 33 -49 38 -65 45 -140 10 -108 7 -139 -21 -220 -25 -72 -32
-104 -44 -216 -9 -78 -1 -114 46 -204 26 -51 24 -143 -5 -198 -24 -47 -22 -59
14 -72 38 -15 70 4 108 65 20 30 39 55 44 55 11 0 121 -135 139 -171 16 -33
53 -46 91 -33 40 15 48 36 33 94 -12 45 -11 53 3 69 22 24 21 32 -14 101 -16
33 -30 69 -30 80 0 11 14 49 32 83 27 53 32 73 32 133 -1 58 -6 79 -29 122
l-28 52 33 35 c27 28 35 47 46 108 21 121 4 142 -66 87 -42 -34 -50 -36 -50
-16 0 23 40 65 80 86 62 32 70 44 69 113 -2 111 -2 111 -94 113 -44 0 -99 5
-122 11 -28 7 -58 7 -85 1 -109 -24 -108 -24 -159 45 -22 30 -44 35 -56 13z"/>
<path d="M10207 5961 c-49 -46 -56 -49 -118 -53 l-65 -5 -60 48 c-32 27 -63
48 -69 46 -19 -6 -35 -52 -35 -100 0 -52 10 -78 45 -117 18 -20 24 -41 28
-102 3 -43 3 -78 0 -78 -3 0 -25 18 -49 40 -73 67 -94 53 -94 -65 0 -74 12
-117 45 -165 l25 -37 -27 -49 c-41 -72 -39 -156 5 -241 18 -34 32 -71 32 -83
0 -11 -12 -49 -27 -85 -29 -72 -25 -85 25 -85 12 0 22 -3 22 -6 0 -3 -15 -32
-32 -64 -40 -71 -33 -93 28 -98 37 -2 42 1 97 62 32 36 64 80 72 98 21 51 26
52 64 7 28 -32 44 -41 71 -42 31 -2 35 1 38 24 2 15 -6 60 -16 101 -21 80 -15
116 21 146 9 8 23 36 33 64 22 68 14 168 -21 271 -23 67 -27 91 -23 155 3 50
11 87 22 103 9 15 19 51 23 80 3 30 11 61 18 69 31 39 48 124 34 174 -14 52
-46 49 -112 -13z"/>
<path d="M9666 4158 c-33 -130 -96 -319 -163 -488 -306 -780 -840 -1482 -1504
-1980 -68 -51 -126 -95 -128 -97 -6 -4 21 -53 29 -53 12 0 223 162 350 269
140 116 370 345 504 501 418 486 739 1065 925 1670 29 91 54 181 57 201 5 32
3 37 -17 42 -13 4 -26 7 -29 7 -3 0 -14 -33 -24 -72z"/>
<path d="M793 4092 c-14 -2 -23 -10 -23 -21 0 -32 79 -270 147 -441 308 -782
835 -1475 1507 -1985 l90 -67 19 23 19 24 -33 26 c-318 250 -473 389 -653 587
-182 200 -299 349 -441 562 -249 374 -432 753 -561 1165 -20 66 -40 122 -43
126 -3 3 -16 3 -28 1z"/>
<path d="M7218 1610 c-69 -28 -218 -110 -218 -121 0 -7 306 -589 315 -597 3
-4 65 26 65 32 0 2 -63 122 -140 267 -77 145 -140 269 -140 275 0 19 172 94
215 94 113 0 183 -129 121 -220 -13 -19 -51 -51 -84 -70 -34 -19 -61 -37 -61
-40 -1 -3 78 -42 175 -87 l176 -83 41 22 42 21 -145 69 -144 69 31 24 c40 32
63 91 63 164 0 50 -5 66 -32 107 -45 66 -96 94 -173 93 -35 0 -79 -8 -107 -19z"/>
<path d="M3055 1566 c-100 -32 -178 -96 -227 -188 -19 -37 -23 -58 -23 -143 0
-88 3 -107 27 -157 33 -71 100 -138 176 -175 50 -25 68 -28 152 -28 82 0 103
4 151 26 150 71 230 222 199 376 -22 106 -79 192 -159 242 -94 57 -207 75
-296 47z m183 -71 c75 -23 131 -70 169 -144 58 -112 41 -235 -45 -324 -54 -56
-105 -79 -188 -85 -61 -4 -80 -1 -125 20 -73 33 -110 66 -143 128 -85 155 -8
343 165 404 57 19 103 20 167 1z"/>
<path d="M6202 1216 c-68 -18 -125 -36 -127 -38 -5 -5 172 -648 179 -656 2 -2
54 10 116 28 124 34 211 74 264 121 86 75 121 243 76 363 -28 72 -90 142 -162
181 -45 24 -67 29 -138 32 -71 2 -105 -3 -208 -31z m270 -46 c99 -28 188 -149
188 -256 0 -108 -53 -194 -148 -243 -42 -21 -166 -61 -191 -61 -13 0 -31 52
-86 253 -39 138 -70 257 -70 262 0 14 160 54 220 54 28 1 67 -4 87 -9z"/>
<path d="M4174 1191 c-104 -27 -207 -119 -244 -219 -30 -80 -25 -194 11 -272
83 -174 300 -254 476 -175 70 32 147 105 180 174 23 47 28 68 28 141 0 72 -4
94 -28 146 -58 126 -178 205 -317 210 -41 2 -89 0 -106 -5z m189 -77 c25 -8
66 -33 91 -55 155 -136 125 -370 -59 -467 -69 -36 -179 -38 -245 -4 -139 72
-201 219 -150 354 55 146 215 222 363 172z"/>
<path d="M5327 1093 c-7 -10 -247 -650 -255 -676 -4 -16 1 -18 34 -15 l39 3
44 118 44 117 62 0 c34 0 102 3 151 6 l89 6 54 -117 54 -117 36 7 c20 4 37 8
38 9 2 2 -67 151 -152 332 l-155 329 -39 3 c-22 2 -41 -1 -44 -5z m112 -232
c46 -101 58 -137 49 -143 -7 -4 -61 -8 -120 -8 l-107 0 30 83 c17 45 39 106
50 135 19 54 29 76 34 70 1 -2 30 -63 64 -137z"/>
</g>
</svg>
